<svg width="20" height="20" viewBox="0 0 20 20" fill="none" xmlns="http://www.w3.org/2000/svg">
<path fill-rule="evenodd" clip-rule="evenodd" d="M8.57759 5.46814C8.15216 5.04272 7.40841 4.61502 6.03619 4.95816C4.65925 5.30248 3.64346 6.32839 3.30606 7.59331C2.97491 8.83477 3.27454 10.4111 4.75739 11.8938L9.4137 16.5493C9.73925 16.8748 10.2649 16.8747 10.5904 16.549C11.6361 15.5027 13.2976 13.8403 15.2441 11.8938C16.7262 10.4117 17.026 8.83527 16.6949 7.59358C16.3576 6.32852 15.342 5.30248 13.9648 4.95817C12.5921 4.61499 11.8483 5.04276 11.4229 5.46814C11.1902 5.70083 11.0301 5.95881 10.9279 6.16303C10.8776 6.26374 10.8434 6.34727 10.8229 6.40197C10.8127 6.42919 10.806 6.44886 10.8025 6.45946L10.7999 6.46786C10.6958 6.82242 10.3704 7.06636 10.0003 7.06638C9.63035 7.06641 9.3049 6.82251 9.20076 6.46797L9.19807 6.45955C9.1946 6.44894 9.18793 6.42927 9.17772 6.40205C9.1572 6.34735 9.12299 6.2638 9.07262 6.16309C8.97048 5.95884 8.81029 5.70084 8.57759 5.46814ZM10.0002 4.55648C10.0751 4.46715 10.1563 4.37771 10.2444 4.28963C11.069 3.46501 12.4085 2.85112 14.3691 3.34127C16.3252 3.83029 17.8094 5.30426 18.3053 7.16419C18.8075 9.0475 18.2738 11.2211 16.4226 13.0723C14.4763 15.0187 12.8149 16.6809 11.7693 17.7272C10.7931 18.704 9.21195 18.7044 8.23528 17.7279L3.57898 13.0724C1.72704 11.2207 1.19334 9.04707 1.69569 7.16377C2.19179 5.30392 3.67631 3.83029 5.63186 3.34128C7.59213 2.85109 8.93151 3.46505 9.7561 4.28963C9.84418 4.37771 9.92543 4.46715 10.0002 4.55648Z" fill="#191D23"/>
</svg>
