<svg width="24" height="24" viewBox="0 0 24 24" fill="none" xmlns="http://www.w3.org/2000/svg">
<g clip-path="url(#clip0_38_11131)">
<path d="M7.33341 11L6.66675 13.0667H8.00008L7.33341 11Z" fill="#64748B"/>
<path d="M20.2001 1.59997H11.5334C10.4289 1.59997 9.53345 2.4954 9.53345 3.59997V6.26664H12.2001H3.53345C2.40011 6.26664 1.53345 7.1333 1.53345 8.26664V15.6C1.53345 16.7333 2.40011 17.6 3.53345 17.6H4.20011V21L8.40011 17.6H10.8668C11.9713 17.6 12.8668 16.7045 12.8668 15.6V12.9333H20.2001C21.3334 12.9333 22.2001 12.0666 22.2001 10.9333V3.59997C22.2001 2.46664 21.3334 1.59997 20.2001 1.59997ZM8.73345 14.8666L8.40011 13.8H6.33345L5.93345 14.8666H4.33345L6.53345 8.9333H8.13345L10.3334 14.8666H8.73345ZM18.8668 9.59997V10.9333C18.0001 10.9333 17.0668 10.6666 16.2668 10.2666C15.4668 10.6666 14.5334 10.8666 13.6001 10.9333L13.5334 9.59997C14.0001 9.59997 14.4668 9.5333 14.9334 9.39997C14.3334 8.79997 13.9334 8.06664 13.7334 7.26664H15.1334C15.3334 7.86664 15.7334 8.3333 16.2001 8.7333C16.9334 8.1333 17.4001 7.26664 17.4668 6.26664H13.4668V4.9333H15.4668V3.59997H16.8001V4.9333H19.0001L19.0668 5.59997C19.1334 6.99997 18.6001 8.39997 17.6001 9.39997C18.0668 9.5333 18.4668 9.59997 18.8668 9.59997Z" fill="#64748B"/>
</g>
<defs>
<clipPath id="clip0_38_11131">
<rect width="24" height="24" fill="white"/>
</clipPath>
</defs>
</svg>
