<svg width="20" height="20" viewBox="0 0 20 20" fill="none" xmlns="http://www.w3.org/2000/svg">
<path fill-rule="evenodd" clip-rule="evenodd" d="M8.57759 5.46813C8.15216 5.0427 7.40841 4.615 6.03619 4.95814C4.65925 5.30246 3.64346 6.32837 3.30606 7.5933C2.97491 8.83476 3.27454 10.4111 4.75739 11.8937L9.4137 16.5493C9.73925 16.8748 10.2649 16.8747 10.5904 16.549C11.6361 15.5027 13.2976 13.8403 15.2441 11.8938C16.7262 10.4117 17.026 8.83526 16.6949 7.59356C16.3576 6.3285 15.342 5.30246 13.9648 4.95815C12.5921 4.61497 11.8483 5.04275 11.4229 5.46813C11.1902 5.70081 11.0301 5.95879 10.9279 6.16302C10.8776 6.26372 10.8434 6.34726 10.8229 6.40195C10.8127 6.42917 10.806 6.44884 10.8025 6.45945L10.7999 6.46785C10.6958 6.8224 10.3704 7.06635 10.0003 7.06637C9.63035 7.06639 9.3049 6.82249 9.20076 6.46796L9.19807 6.45954C9.1946 6.44893 9.18793 6.42926 9.17772 6.40203C9.1572 6.34733 9.12299 6.26379 9.07262 6.16307C8.97048 5.95883 8.81029 5.70083 8.57759 5.46813ZM10.0002 4.55646C10.0751 4.46714 10.1563 4.3777 10.2444 4.28961C11.069 3.46499 12.4085 2.8511 14.3691 3.34125C16.3252 3.83028 17.8094 5.30424 18.3053 7.16418C18.8075 9.04749 18.2738 11.2211 16.4226 13.0723C14.4763 15.0187 12.8149 16.6809 11.7693 17.7271C10.7931 18.704 9.21195 18.7044 8.23528 17.7279L3.57898 13.0723C1.72704 11.2207 1.19334 9.04706 1.69569 7.16375C2.19179 5.3039 3.67631 3.83027 5.63186 3.34126C7.59213 2.85107 8.93151 3.46504 9.7561 4.28961C9.84418 4.3777 9.92543 4.46714 10.0002 4.55646Z" fill="#191D23"/>
</svg>
