<svg width="147" height="28" viewBox="0 0 147 28" fill="none" xmlns="http://www.w3.org/2000/svg">
<ellipse cx="13.8337" cy="14" rx="13.8337" ry="14" fill="#1E293B"/>
<path d="M19.9673 10.9831C19.5532 11.1693 19.1162 11.2857 18.6561 11.3556C19.1162 11.0762 19.4842 10.6339 19.6452 10.0985C19.2082 10.3546 18.7251 10.5408 18.1961 10.6572C17.782 10.2149 17.1839 9.93555 16.5399 9.93555C15.2977 9.93555 14.2856 10.9598 14.2856 12.2169C14.2856 12.4031 14.3086 12.5661 14.3546 12.729C12.4914 12.6359 10.8122 11.728 9.68511 10.3313C9.50109 10.6805 9.38608 11.0529 9.38608 11.472C9.38608 12.2634 9.77712 12.9618 10.3982 13.3808C10.0301 13.3576 9.68511 13.2644 9.36307 13.1015V13.1248C9.36307 14.2422 10.1452 15.1733 11.1803 15.3828C10.9963 15.4294 10.7892 15.4527 10.5822 15.4527C10.4442 15.4527 10.2832 15.4294 10.1452 15.4061C10.4442 16.314 11.2723 16.9891 12.2614 16.9891C11.4793 17.5943 10.5132 17.9668 9.45508 17.9668C9.27106 17.9668 9.08704 17.9668 8.92603 17.9435C9.93814 18.5953 11.1113 18.9678 12.3994 18.9678C16.5629 18.9678 18.8401 15.476 18.8401 12.4497C18.8401 12.3566 18.8401 12.2402 18.8401 12.1471C19.2772 11.8444 19.6682 11.4487 19.9673 10.9831Z" fill="white"/>
<ellipse cx="53.3589" cy="14" rx="13.8337" ry="14" fill="#2563EB"/>
<path d="M52.083 20.3038V14.7503H50.2363V12.5859H52.083V10.9898C52.083 9.13752 53.2009 8.12891 54.8337 8.12891C55.6158 8.12891 56.2879 8.18784 56.4838 8.21417V10.1499L55.3514 10.1505C54.4634 10.1505 54.2915 10.5775 54.2915 11.2041V12.5859H56.4093L56.1335 14.7503H54.2915V20.3038H52.083Z" fill="white"/>
<ellipse cx="92.8838" cy="14" rx="13.8337" ry="14" fill="#1E293B"/>
<path d="M92.8847 8.44721C94.6719 8.44721 94.8835 8.45398 95.5896 8.48656C96.0141 8.49182 96.4346 8.5707 96.8327 8.71979C97.1214 8.83248 97.3837 9.00511 97.6025 9.22656C97.8213 9.44802 97.9919 9.71339 98.1032 10.0056C98.2506 10.4085 98.3285 10.8341 98.3337 11.2637C98.3656 11.9782 98.3726 12.1924 98.3726 14.0011C98.3726 15.8098 98.3659 16.024 98.3337 16.7385C98.3285 17.1681 98.2506 17.5936 98.1032 17.9966C97.9919 18.2888 97.8213 18.5541 97.6025 18.7756C97.3837 18.997 97.1214 19.1697 96.8327 19.2824C96.4346 19.4315 96.0141 19.5103 95.5896 19.5156C94.8839 19.5479 94.6722 19.5549 92.8847 19.5549C91.0971 19.5549 90.8855 19.5482 90.1798 19.5156C89.7553 19.5103 89.3348 19.4315 88.9366 19.2824C88.6479 19.1697 88.3857 18.997 88.1668 18.7756C87.948 18.5541 87.7774 18.2888 87.6661 17.9966C87.5188 17.5936 87.4408 17.1681 87.4356 16.7385C87.4038 16.024 87.3967 15.8098 87.3967 14.0011C87.3967 12.1924 87.4034 11.9782 87.4356 11.2637C87.4408 10.8341 87.5188 10.4085 87.6661 10.0056C87.7774 9.71339 87.948 9.44802 88.1668 9.22656C88.3857 9.00511 88.6479 8.83248 88.9366 8.71979C89.3348 8.5707 89.7553 8.49182 90.1798 8.48656C90.8858 8.4543 91.0974 8.44721 92.8847 8.44721ZM92.8847 7.22656C91.0678 7.22656 90.8389 7.2343 90.1249 7.26721C89.5694 7.27839 89.0197 7.38485 88.4993 7.58205C88.0529 7.75226 87.6486 8.019 87.3145 8.36366C86.9736 8.70184 86.7098 9.11127 86.5415 9.56334C86.3467 10.09 86.2415 10.6463 86.2304 11.2085C86.1986 11.9304 86.1909 12.162 86.1909 14.0008C86.1909 15.8395 86.1986 16.0711 86.2311 16.7937C86.2421 17.3559 86.3473 17.9122 86.5422 18.4388C86.7103 18.8908 86.9739 19.3002 87.3145 19.6385C87.6487 19.9832 88.0533 20.25 88.4999 20.4201C89.0203 20.6173 89.57 20.7238 90.1256 20.7349C90.8396 20.7672 91.0675 20.7756 92.8853 20.7756C94.7031 20.7756 94.931 20.7679 95.645 20.7349C96.2006 20.7238 96.7503 20.6173 97.2707 20.4201C97.7152 20.2457 98.1189 19.9794 98.4559 19.6381C98.7929 19.2968 99.0558 18.8882 99.2278 18.4382C99.4227 17.9115 99.5278 17.3553 99.5389 16.793C99.5708 16.0711 99.5784 15.8395 99.5784 14.0008C99.5784 12.162 99.5708 11.9304 99.5383 11.2079C99.5272 10.6456 99.422 10.0893 99.2272 9.56269C99.059 9.11068 98.7955 8.70126 98.4548 8.36301C98.1206 8.01828 97.716 7.75153 97.2694 7.5814C96.749 7.3842 96.1993 7.27775 95.6438 7.26656C94.9304 7.2343 94.7015 7.22656 92.8847 7.22656Z" fill="white"/>
<path d="M92.8861 10.5234C92.2063 10.5234 91.5417 10.7275 90.9764 11.1097C90.4111 11.492 89.9706 12.0353 89.7104 12.6709C89.4502 13.3066 89.3821 14.006 89.5148 14.6808C89.6474 15.3556 89.9748 15.9755 90.4555 16.462C90.9363 16.9485 91.5487 17.2798 92.2155 17.414C92.8823 17.5482 93.5735 17.4794 94.2016 17.2161C94.8297 16.9528 95.3665 16.5069 95.7442 15.9348C96.1219 15.3627 96.3235 14.6902 96.3235 14.0021C96.3235 13.0795 95.9614 12.1947 95.3167 11.5423C94.6721 10.8899 93.7978 10.5234 92.8861 10.5234ZM92.8861 16.2602C92.4448 16.2602 92.0134 16.1278 91.6465 15.8797C91.2796 15.6315 90.9936 15.2789 90.8247 14.8663C90.6558 14.4537 90.6117 13.9996 90.6978 13.5616C90.7838 13.1236 90.9964 12.7213 91.3084 12.4055C91.6204 12.0897 92.018 11.8746 92.4508 11.7875C92.8837 11.7003 93.3323 11.7451 93.74 11.916C94.1477 12.0869 94.4962 12.3763 94.7413 12.7476C94.9865 13.119 95.1174 13.5555 95.1174 14.0021C95.1174 14.601 94.8823 15.1754 94.4639 15.5988C94.0454 16.0223 93.4779 16.2602 92.8861 16.2602Z" fill="white"/>
<path d="M96.4585 11.1981C96.9021 11.1981 97.2618 10.8341 97.2618 10.3852C97.2618 9.93621 96.9021 9.57227 96.4585 9.57227C96.0149 9.57227 95.6553 9.93621 95.6553 10.3852C95.6553 10.8341 96.0149 11.1981 96.4585 11.1981Z" fill="white"/>
<ellipse cx="132.409" cy="14" rx="13.8337" ry="14" fill="#1E293B"/>
<path fill-rule="evenodd" clip-rule="evenodd" d="M133.01 7.22656C129.462 7.22656 126.607 10.1155 126.607 13.7065C126.607 16.5684 128.448 18.9984 130.983 19.8624C131.303 19.9164 131.41 19.7274 131.41 19.5384C131.41 19.3764 131.41 18.9714 131.41 18.4314C129.622 18.8364 129.249 17.5674 129.249 17.5674C128.955 16.8114 128.528 16.6224 128.528 16.6224C127.941 16.2174 128.582 16.2174 128.582 16.2174C129.222 16.2714 129.569 16.8924 129.569 16.8924C130.129 17.8914 131.063 17.5944 131.436 17.4324C131.49 17.0004 131.65 16.7304 131.836 16.5684C130.423 16.4064 128.928 15.8394 128.928 13.3555C128.928 12.6535 129.169 12.0595 129.595 11.6275C129.542 11.4655 129.302 10.8175 129.649 9.89952C129.649 9.89952 130.182 9.73752 131.41 10.5745C131.917 10.4395 132.477 10.3585 133.01 10.3585C133.544 10.3585 134.104 10.4395 134.611 10.5745C135.838 9.73752 136.372 9.89952 136.372 9.89952C136.719 10.7905 136.505 11.4385 136.425 11.6275C136.825 12.0865 137.092 12.6535 137.092 13.3555C137.092 15.8394 135.598 16.3794 134.158 16.5414C134.398 16.7304 134.584 17.1354 134.584 17.7294C134.584 18.5934 134.584 19.2954 134.584 19.5114C134.584 19.6734 134.691 19.8894 135.038 19.8354C137.572 18.9984 139.413 16.5684 139.413 13.7065C139.413 10.1155 136.559 7.22656 133.01 7.22656Z" fill="white"/>
</svg>
